PathFileType	4	(X/Y/Z)	./resultDataOpenSim/trcMotMarkerGrf/sub09/qtm-15-01.trc
DataRate	CameraRate	NumFrames	NumMarkers	Units	OrigDataRate	OrigDataStartFrame	OrigNumFrames
250.000000	250.000000	8	24	m	250.000000	318	508
Frame#	Time	L.Toe.Tip			R.Toe.Tip			L.Ankle.Lat			R.Ankle.Lat			L.Ankle.Med			R.Ankle.Med			L.Heel			R.Heel			L.Knee.Lat			R.Knee.Lat			L.Knee.Med			R.Knee.Med			L.Thigh.Upper			R.Thigh.Upper			L.ASIS			R.ASIS			V.Sacral			L.Acromium			R.Acromium			C7			L.Elbow			R.Elbow			L.Wrist.Lat			R.Wrist.Lat
		X1	Y1	Z1	X2	Y2	Z2	X3	Y3	Z3	X4	Y4	Z4	X5	Y5	Z5	X6	Y6	Z6	X7	Y7	Z7	X8	Y8	Z8	X9	Y9	Z9	X10	Y10	Z10	X11	Y11	Z11	X12	Y12	Z12	X13	Y13	Z13	X14	Y14	Z14	X15	Y15	Z15	X16	Y16	Z16	X17	Y17	Z17	X18	Y18	Z18	X19	Y19	Z19	X20	Y20	Z20	X21	Y21	Z21	X22	Y22	Z22	X23	Y23	Z23	X24	Y24	Z24

318	1.268	0.23550358	-0.039371387	-0.010605382	1.1022082	0.040777037	0.0079144539	0.19907943	0.10649906	-0.096526537	0.95821449	0.054140362	0.056074958	0.23037258	0.1051504	-0.003084083	0.96010278	0.093527544	-0.036645759	0.1385226	0.14426678	-0.050399577	0.88495563	0.031932842	0.014519205	0.50545005	0.39401129	-0.14582161	0.97016425	0.5062264	0.1086063	0.51629402	0.38478785	-0.020899158	0.94924278	0.49415552	-0.014400336	0.6419754	0.78065271	-0.16982205	0.71979242	0.81952904	0.19558318	0.75695113	0.8544253	-0.1341477	0.78260517	0.89442054	0.10504444	0.61129962	0.9396358	-0.0015285063	0.81286947	1.3242194	-0.16209119	0.776548	1.3344064	0.16850902	0.72626346	1.3827352	-0.0024989376	0.6497472	0.99220842	-0.23960615	0.56893742	1.051534	0.25808956	0.81009686	0.77650836	-0.25021133	0.60293506	0.78793153	0.31513494
319	1.272	0.23774223	-0.037471357	-0.012356313	1.102416	0.040578182	0.007637985	0.20475023	0.11016095	-0.097361597	0.95851274	0.054063755	0.055822361	0.2365132	0.10783856	-0.0040886602	0.96031679	0.093313373	-0.036903959	0.14530181	0.14920342	-0.0507438	0.88498048	0.031971124	0.0144826	0.51539867	0.39269556	-0.14720378	0.97495959	0.50558472	0.1074665	0.52639502	0.38302775	-0.022533818	0.95474342	0.49349351	-0.015432592	0.64905025	0.78002827	-0.16970144	0.72644751	0.81999086	0.19566739	0.76340742	0.85437994	-0.13391818	0.78894803	0.89457266	0.10523963	0.61701717	0.93978713	-0.0017543019	0.81941188	1.3242277	-0.16219162	0.78353415	1.3343103	0.16845153	0.73284314	1.3829714	-0.0024014563	0.65599142	0.99250394	-0.23968307	0.57609147	1.0510571	0.2582207	0.81498616	0.77582402	-0.25039101	0.6108006	0.78757518	0.3156536
320	1.276	0.24012518	-0.035354978	-0.014218909	1.1025176	0.040434074	0.0074299788	0.21064236	0.11416513	-0.098189092	0.95881299	0.053970839	0.0556534	0.24284351	0.11072697	-0.0050330193	0.96044336	0.093185007	-0.037062158	0.15230599	0.15438093	-0.050942529	0.88496321	0.031999879	0.014547281	0.52569999	0.39148948	-0.14863533	0.97902872	0.50513229	0.10653225	0.53662947	0.3813072	-0.023997471	0.95985831	0.49291873	-0.016420584	0.65603577	0.77952299	-0.16954628	0.73304971	0.82041757	0.19570267	0.76975249	0.85444125	-0.13369264	0.79517204	0.89474468	0.10544152	0.62270446	0.94002985	-0.0019878791	0.82583988	1.3243089	-0.16233807	0.79045585	1.3343321	0.16835352	0.73942383	1.383211	-0.0023735884	0.66216995	0.99283744	-0.23976788	0.58336276	1.0506987	0.25843333	0.81983153	0.77521404	-0.25065549	0.6186934	0.78731291	0.31611516
321	1.28	0.2426572	-0.032963104	-0.016166978	1.1025425	0.040330117	0.0072787853	0.21680037	0.11853572	-0.099011528	0.95911446	0.053871554	0.055529394	0.24935188	0.11383531	-0.0059228133	0.96050934	0.093121103	-0.037172203	0.15955335	0.1598154	-0.051040926	0.88491871	0.032028766	0.014668971	0.53630072	0.39040189	-0.15008262	0.98266169	0.50478355	0.10577597	0.54690204	0.37967034	-0.025274327	0.96453148	0.49245457	-0.017375789	0.66289829	0.77915921	-0.16940195	0.73961436	0.82081803	0.19570005	0.77599697	0.85460926	-0.13347126	0.80128386	0.89496772	0.10563892	0.62853202	0.9404024	-0.0021561377	0.83215695	1.324475	-0.16253004	0.79731843	1.334473	0.16821547	0.74602459	1.3834279	-0.0024705641	0.66827891	0.99321966	-0.23983615	0.59083237	1.0504781	0.25877795	0.82464217	0.77467848	-0.25101202	0.62662589	0.78715095	0.31652077
322	1.284	0.24537311	-0.030233848	-0.018207915	1.1025351	0.040246853	0.0071439662	0.22322115	0.1232576	-0.099821374	0.95939933	0.053792576	0.055411721	0.25602434	0.1171685	-0.0067724672	0.96057732	0.093079208	-0.037279735	0.16706176	0.16551792	-0.051069327	0.88486574	0.032061597	0.014787778	0.54708488	0.38942956	-0.1514906	0.98615679	0.50446272	0.10510085	0.55729946	0.37812509	-0.026468165	0.9687662	0.49211426	-0.018285994	0.66961166	0.77894466	-0.16930895	0.74612467	0.82121117	0.19567366	0.78214645	0.85488153	-0.13325997	0.80730136	0.89526521	0.1058265	0.63437612	0.94089243	-0.0022341829	0.83837235	1.3247339	-0.16275728	0.80413069	1.3347281	0.16804133	0.75258673	1.3837007	-0.0026689861	0.67432564	0.99366018	-0.23987943	0.59844303	1.0503921	0.25923205	0.8294083	0.77422024	-0.25143342	0.6345829	0.78709275	0.31686234
323	1.288	0.24834999	-0.027090447	-0.020355212	1.1025251	0.040172805	0.00700008	0.2298302	0.12828445	-0.1005978	0.95960065	0.053773112	0.055309269	0.26285343	0.12072725	-0.0075948203	0.96069246	0.093022182	-0.037397998	0.17483281	0.17147819	-0.051037912	0.88481688	0.032089778	0.01487319	0.55798512	0.38855817	-0.15279664	0.98966939	0.50413445	0.10443528	0.56792698	0.37666485	-0.027658889	0.97264984	0.49190473	-0.019106098	0.67617256	0.77887229	-0.16930456	0.75252715	0.82162537	0.19563763	0.78819949	0.8552601	-0.13306119	0.81324062	0.89565487	0.10600206	0.64006043	0.94148967	-0.0022110793	0.8444949	1.325088	-0.16301004	0.81089823	1.3350933	0.16783654	0.75905472	1.3841253	-0.0028830136	0.68031696	0.99415824	-0.23991758	0.60604984	1.0504302	0.25972416	0.83410235	0.77385249	-0.25188568	0.64253686	0.78714212	0.31712867
324	1.292	0.25166853	-0.023445923	-0.022604705	1.1025218	0.040107522	0.0068491327	0.2365404	0.13357048	-0.10131973	0.95964237	0.053842312	0.055265754	0.26985052	0.12452372	-0.0083911328	0.96084298	0.092943477	-0.037511507	0.18285148	0.17766387	-0.050938835	0.88477831	0.032103392	0.014937605	0.56901937	0.38776291	-0.15398806	0.99322937	0.50379408	0.10375547	0.57879133	0.37530629	-0.028836403	0.9762989	0.49180224	-0.019796557	0.68258832	0.7789453	-0.16943582	0.75875058	0.82209293	0.19560784	0.79414953	0.85574959	-0.13286648	0.8191037	0.89615208	0.10615788	0.64555836	0.94223795	-0.0020493085	0.85052425	1.3255369	-0.16329043	0.81761917	1.3355716	0.16760424	0.76542525	1.3847278	-0.0030524767	0.68624314	0.99471103	-0.23996513	0.61351185	1.0505848	0.26018265	0.83871218	0.77359497	-0.25235516	0.65047011	0.78730308	0.31731315
325	1.296	0.25537712	-0.019255975	-0.024921033	1.1025231	0.040054095	0.0067059329	0.24333634	0.13908279	-0.1019821	0.95953709	0.053984166	0.055297648	0.27703763	0.1285821	-0.0091575209	0.96098529	0.092865443	-0.03760022	0.19109592	0.18403789	-0.05078332	0.88475076	0.032102575	0.015008843	0.580222	0.38702164	-0.15511974	0.99681913	0.50344722	0.10306323	0.58985789	0.37407809	-0.029972519	0.97977706	0.49173362	-0.020360244	0.68886914	0.77917632	-0.16969182	0.76473632	0.82263749	0.19560423	0.79998691	0.856345	-0.13266001	0.82488681	0.89676809	0.10628296	0.65095395	0.94318263	-0.0017377388	0.85644924	1.3260781	-0.1636064	0.82428746	1.3361689	0.16734628	0.77171685	1.3854675	-0.0031940463	0.6920803	0.99532912	-0.2400034	0.6208032	1.0508561	0.26059861	0.84324841	0.77346466	-0.25284627	0.65838164	0.78757622	0.31741435
